<mxfile host="app.diagrams.net" modified="2021-10-23T02:18:00.309Z" agent="5.0 (Windows NT 10.0; Win64; x64) AppleWebKit/537.36 (KHTML, like Gecko) Chrome/95.0.4638.54 Safari/537.36" etag="G555mUF0ZelPoB1Zzhwu" version="15.5.7" type="github" pages="3">
  <diagram id="HloR8D8-FnarYfhAqfTk" name="WBS">
    <mxGraphModel dx="1668" dy="1254" grid="0" gridSize="10" guides="1" tooltips="1" connect="1" arrows="1" fold="1" page="0" pageScale="1" pageWidth="850" pageHeight="1100" math="0" shadow="0">
      <root>
        <mxCell id="hKFb7bivR6nwUs9oMAIg-0" />
        <mxCell id="hKFb7bivR6nwUs9oMAIg-1" parent="hKFb7bivR6nwUs9oMAIg-0" />
        <mxCell id="cXa9iwHkYyDvZGANJJYn-30" style="edgeStyle=orthogonalEdgeStyle;rounded=0;orthogonalLoop=1;jettySize=auto;html=1;exitX=0.5;exitY=1;exitDx=0;exitDy=0;entryX=0.5;entryY=0;entryDx=0;entryDy=0;fontSize=15;" parent="hKFb7bivR6nwUs9oMAIg-1" source="hKFb7bivR6nwUs9oMAIg-2" target="hKFb7bivR6nwUs9oMAIg-4" edge="1">
          <mxGeometry relative="1" as="geometry" />
        </mxCell>
        <mxCell id="cXa9iwHkYyDvZGANJJYn-31" style="edgeStyle=orthogonalEdgeStyle;rounded=0;orthogonalLoop=1;jettySize=auto;html=1;exitX=0.5;exitY=1;exitDx=0;exitDy=0;entryX=0.5;entryY=0;entryDx=0;entryDy=0;fontSize=15;" parent="hKFb7bivR6nwUs9oMAIg-1" source="hKFb7bivR6nwUs9oMAIg-2" target="hKFb7bivR6nwUs9oMAIg-30" edge="1">
          <mxGeometry relative="1" as="geometry" />
        </mxCell>
        <mxCell id="cXa9iwHkYyDvZGANJJYn-32" style="edgeStyle=orthogonalEdgeStyle;rounded=0;orthogonalLoop=1;jettySize=auto;html=1;exitX=0.5;exitY=1;exitDx=0;exitDy=0;entryX=0.5;entryY=0;entryDx=0;entryDy=0;fontSize=15;" parent="hKFb7bivR6nwUs9oMAIg-1" source="hKFb7bivR6nwUs9oMAIg-2" target="hKFb7bivR6nwUs9oMAIg-11" edge="1">
          <mxGeometry relative="1" as="geometry" />
        </mxCell>
        <mxCell id="cXa9iwHkYyDvZGANJJYn-34" style="edgeStyle=orthogonalEdgeStyle;rounded=0;orthogonalLoop=1;jettySize=auto;html=1;exitX=0.5;exitY=1;exitDx=0;exitDy=0;entryX=0.5;entryY=0;entryDx=0;entryDy=0;fontSize=15;" parent="hKFb7bivR6nwUs9oMAIg-1" source="hKFb7bivR6nwUs9oMAIg-2" target="hKFb7bivR6nwUs9oMAIg-17" edge="1">
          <mxGeometry relative="1" as="geometry" />
        </mxCell>
        <mxCell id="cXa9iwHkYyDvZGANJJYn-35" style="edgeStyle=orthogonalEdgeStyle;rounded=0;orthogonalLoop=1;jettySize=auto;html=1;exitX=0.5;exitY=1;exitDx=0;exitDy=0;entryX=0.5;entryY=0;entryDx=0;entryDy=0;fontSize=15;" parent="hKFb7bivR6nwUs9oMAIg-1" source="hKFb7bivR6nwUs9oMAIg-2" target="hKFb7bivR6nwUs9oMAIg-23" edge="1">
          <mxGeometry relative="1" as="geometry" />
        </mxCell>
        <mxCell id="cXa9iwHkYyDvZGANJJYn-36" style="edgeStyle=orthogonalEdgeStyle;rounded=0;orthogonalLoop=1;jettySize=auto;html=1;exitX=0.5;exitY=1;exitDx=0;exitDy=0;entryX=0.5;entryY=0;entryDx=0;entryDy=0;fontSize=15;" parent="hKFb7bivR6nwUs9oMAIg-1" source="hKFb7bivR6nwUs9oMAIg-2" target="hKFb7bivR6nwUs9oMAIg-38" edge="1">
          <mxGeometry relative="1" as="geometry" />
        </mxCell>
        <mxCell id="cXa9iwHkYyDvZGANJJYn-37" style="edgeStyle=orthogonalEdgeStyle;rounded=0;orthogonalLoop=1;jettySize=auto;html=1;exitX=0.5;exitY=1;exitDx=0;exitDy=0;entryX=0.5;entryY=0;entryDx=0;entryDy=0;fontSize=15;" parent="hKFb7bivR6nwUs9oMAIg-1" source="hKFb7bivR6nwUs9oMAIg-2" target="hKFb7bivR6nwUs9oMAIg-49" edge="1">
          <mxGeometry relative="1" as="geometry" />
        </mxCell>
        <mxCell id="hKFb7bivR6nwUs9oMAIg-2" value="&lt;font style=&quot;font-size: 31px&quot;&gt;DarthWeeder&lt;/font&gt;" style="rounded=1;whiteSpace=wrap;html=1;fontStyle=5;fillColor=#B9E0A5;strokeColor=#d6b656;shadow=1;sketch=0;glass=1;" parent="hKFb7bivR6nwUs9oMAIg-1" vertex="1">
          <mxGeometry x="71" y="-612" width="206" height="60" as="geometry" />
        </mxCell>
        <mxCell id="hKFb7bivR6nwUs9oMAIg-50" style="edgeStyle=orthogonalEdgeStyle;rounded=0;orthogonalLoop=1;jettySize=auto;html=1;exitX=0.5;exitY=1;exitDx=0;exitDy=0;entryX=0;entryY=0.5;entryDx=0;entryDy=0;" parent="hKFb7bivR6nwUs9oMAIg-1" source="hKFb7bivR6nwUs9oMAIg-4" target="hKFb7bivR6nwUs9oMAIg-5" edge="1">
          <mxGeometry relative="1" as="geometry" />
        </mxCell>
        <mxCell id="hKFb7bivR6nwUs9oMAIg-51" style="edgeStyle=orthogonalEdgeStyle;rounded=0;orthogonalLoop=1;jettySize=auto;html=1;exitX=0.5;exitY=1;exitDx=0;exitDy=0;entryX=0;entryY=0.5;entryDx=0;entryDy=0;" parent="hKFb7bivR6nwUs9oMAIg-1" source="hKFb7bivR6nwUs9oMAIg-4" target="hKFb7bivR6nwUs9oMAIg-7" edge="1">
          <mxGeometry relative="1" as="geometry" />
        </mxCell>
        <mxCell id="hKFb7bivR6nwUs9oMAIg-52" style="edgeStyle=orthogonalEdgeStyle;rounded=0;orthogonalLoop=1;jettySize=auto;html=1;exitX=0.5;exitY=1;exitDx=0;exitDy=0;entryX=0;entryY=0.5;entryDx=0;entryDy=0;" parent="hKFb7bivR6nwUs9oMAIg-1" source="hKFb7bivR6nwUs9oMAIg-4" target="hKFb7bivR6nwUs9oMAIg-8" edge="1">
          <mxGeometry relative="1" as="geometry" />
        </mxCell>
        <mxCell id="hKFb7bivR6nwUs9oMAIg-53" style="edgeStyle=orthogonalEdgeStyle;rounded=0;orthogonalLoop=1;jettySize=auto;html=1;exitX=0.5;exitY=1;exitDx=0;exitDy=0;entryX=0;entryY=0.5;entryDx=0;entryDy=0;" parent="hKFb7bivR6nwUs9oMAIg-1" source="hKFb7bivR6nwUs9oMAIg-4" target="hKFb7bivR6nwUs9oMAIg-9" edge="1">
          <mxGeometry relative="1" as="geometry" />
        </mxCell>
        <mxCell id="hKFb7bivR6nwUs9oMAIg-54" style="edgeStyle=orthogonalEdgeStyle;rounded=0;orthogonalLoop=1;jettySize=auto;html=1;exitX=0.5;exitY=1;exitDx=0;exitDy=0;entryX=0;entryY=0.5;entryDx=0;entryDy=0;" parent="hKFb7bivR6nwUs9oMAIg-1" source="hKFb7bivR6nwUs9oMAIg-4" target="hKFb7bivR6nwUs9oMAIg-10" edge="1">
          <mxGeometry relative="1" as="geometry" />
        </mxCell>
        <mxCell id="cXa9iwHkYyDvZGANJJYn-2" style="edgeStyle=orthogonalEdgeStyle;rounded=0;orthogonalLoop=1;jettySize=auto;html=1;exitX=0.5;exitY=1;exitDx=0;exitDy=0;entryX=0;entryY=0.5;entryDx=0;entryDy=0;fontSize=25;" parent="hKFb7bivR6nwUs9oMAIg-1" source="hKFb7bivR6nwUs9oMAIg-4" target="cXa9iwHkYyDvZGANJJYn-0" edge="1">
          <mxGeometry relative="1" as="geometry" />
        </mxCell>
        <mxCell id="cXa9iwHkYyDvZGANJJYn-3" style="edgeStyle=orthogonalEdgeStyle;rounded=0;orthogonalLoop=1;jettySize=auto;html=1;exitX=0.5;exitY=1;exitDx=0;exitDy=0;entryX=0;entryY=0.5;entryDx=0;entryDy=0;fontSize=25;" parent="hKFb7bivR6nwUs9oMAIg-1" source="hKFb7bivR6nwUs9oMAIg-4" target="cXa9iwHkYyDvZGANJJYn-1" edge="1">
          <mxGeometry relative="1" as="geometry" />
        </mxCell>
        <mxCell id="hKFb7bivR6nwUs9oMAIg-4" value="&lt;u style=&quot;font-size: 15px;&quot;&gt;1. Diseño CAD&lt;/u&gt;" style="rounded=1;whiteSpace=wrap;html=1;movable=0;fontSize=15;fillColor=#f8cecc;strokeColor=#b85450;" parent="hKFb7bivR6nwUs9oMAIg-1" vertex="1">
          <mxGeometry x="-793" y="-449" width="120" height="60" as="geometry" />
        </mxCell>
        <mxCell id="hKFb7bivR6nwUs9oMAIg-5" value="1.1 Eleccion de&amp;nbsp; componentes" style="rounded=1;whiteSpace=wrap;html=1;movable=0;fontSize=13;fillColor=#F8CECC;strokeColor=#b85450;" parent="hKFb7bivR6nwUs9oMAIg-1" vertex="1">
          <mxGeometry x="-679" y="-360" width="120" height="60" as="geometry" />
        </mxCell>
        <mxCell id="hKFb7bivR6nwUs9oMAIg-7" value="1.2 Eleccion de proteccion" style="rounded=1;whiteSpace=wrap;html=1;movable=0;fontSize=13;fillColor=#F8CECC;strokeColor=#b85450;" parent="hKFb7bivR6nwUs9oMAIg-1" vertex="1">
          <mxGeometry x="-679" y="-270" width="120" height="60" as="geometry" />
        </mxCell>
        <mxCell id="hKFb7bivR6nwUs9oMAIg-8" value="1.3 Diseño CAD" style="rounded=1;whiteSpace=wrap;html=1;movable=0;fontSize=13;fillColor=#F8CECC;strokeColor=#b85450;" parent="hKFb7bivR6nwUs9oMAIg-1" vertex="1">
          <mxGeometry x="-679" y="-179" width="120" height="60" as="geometry" />
        </mxCell>
        <mxCell id="hKFb7bivR6nwUs9oMAIg-9" value="1.4 Eleccion del material." style="rounded=1;whiteSpace=wrap;html=1;movable=0;fontSize=13;fillColor=#F8CECC;strokeColor=#b85450;" parent="hKFb7bivR6nwUs9oMAIg-1" vertex="1">
          <mxGeometry x="-679" y="92" width="120" height="60" as="geometry" />
        </mxCell>
        <mxCell id="hKFb7bivR6nwUs9oMAIg-10" value="1.5 Simulaciones (CAE)" style="rounded=1;whiteSpace=wrap;html=1;movable=0;fontSize=13;fillColor=#F8CECC;strokeColor=#b85450;" parent="hKFb7bivR6nwUs9oMAIg-1" vertex="1">
          <mxGeometry x="-679" y="182" width="120" height="60" as="geometry" />
        </mxCell>
        <mxCell id="hKFb7bivR6nwUs9oMAIg-61" style="edgeStyle=orthogonalEdgeStyle;rounded=0;orthogonalLoop=1;jettySize=auto;html=1;exitX=0.5;exitY=1;exitDx=0;exitDy=0;entryX=0;entryY=0.5;entryDx=0;entryDy=0;" parent="hKFb7bivR6nwUs9oMAIg-1" source="hKFb7bivR6nwUs9oMAIg-11" target="hKFb7bivR6nwUs9oMAIg-12" edge="1">
          <mxGeometry relative="1" as="geometry" />
        </mxCell>
        <mxCell id="hKFb7bivR6nwUs9oMAIg-62" style="edgeStyle=orthogonalEdgeStyle;rounded=0;orthogonalLoop=1;jettySize=auto;html=1;exitX=0.5;exitY=1;exitDx=0;exitDy=0;entryX=0;entryY=0.5;entryDx=0;entryDy=0;" parent="hKFb7bivR6nwUs9oMAIg-1" source="hKFb7bivR6nwUs9oMAIg-11" target="hKFb7bivR6nwUs9oMAIg-44" edge="1">
          <mxGeometry relative="1" as="geometry" />
        </mxCell>
        <mxCell id="hKFb7bivR6nwUs9oMAIg-63" style="edgeStyle=orthogonalEdgeStyle;rounded=0;orthogonalLoop=1;jettySize=auto;html=1;exitX=0.5;exitY=1;exitDx=0;exitDy=0;entryX=0;entryY=0.5;entryDx=0;entryDy=0;" parent="hKFb7bivR6nwUs9oMAIg-1" source="hKFb7bivR6nwUs9oMAIg-11" target="hKFb7bivR6nwUs9oMAIg-45" edge="1">
          <mxGeometry relative="1" as="geometry" />
        </mxCell>
        <mxCell id="hKFb7bivR6nwUs9oMAIg-64" style="edgeStyle=orthogonalEdgeStyle;rounded=0;orthogonalLoop=1;jettySize=auto;html=1;exitX=0.5;exitY=1;exitDx=0;exitDy=0;entryX=0;entryY=0.5;entryDx=0;entryDy=0;" parent="hKFb7bivR6nwUs9oMAIg-1" source="hKFb7bivR6nwUs9oMAIg-11" target="hKFb7bivR6nwUs9oMAIg-46" edge="1">
          <mxGeometry relative="1" as="geometry" />
        </mxCell>
        <mxCell id="hKFb7bivR6nwUs9oMAIg-66" style="edgeStyle=orthogonalEdgeStyle;rounded=0;orthogonalLoop=1;jettySize=auto;html=1;exitX=0.5;exitY=1;exitDx=0;exitDy=0;entryX=0;entryY=0.5;entryDx=0;entryDy=0;" parent="hKFb7bivR6nwUs9oMAIg-1" source="hKFb7bivR6nwUs9oMAIg-11" target="hKFb7bivR6nwUs9oMAIg-47" edge="1">
          <mxGeometry relative="1" as="geometry" />
        </mxCell>
        <mxCell id="cXa9iwHkYyDvZGANJJYn-6" style="edgeStyle=orthogonalEdgeStyle;rounded=0;orthogonalLoop=1;jettySize=auto;html=1;exitX=0.5;exitY=1;exitDx=0;exitDy=0;entryX=0;entryY=0.5;entryDx=0;entryDy=0;fontSize=25;" parent="hKFb7bivR6nwUs9oMAIg-1" source="hKFb7bivR6nwUs9oMAIg-11" target="cXa9iwHkYyDvZGANJJYn-4" edge="1">
          <mxGeometry relative="1" as="geometry" />
        </mxCell>
        <mxCell id="cXa9iwHkYyDvZGANJJYn-7" style="edgeStyle=orthogonalEdgeStyle;rounded=0;orthogonalLoop=1;jettySize=auto;html=1;exitX=0.5;exitY=1;exitDx=0;exitDy=0;entryX=0;entryY=0.5;entryDx=0;entryDy=0;fontSize=25;" parent="hKFb7bivR6nwUs9oMAIg-1" source="hKFb7bivR6nwUs9oMAIg-11" target="cXa9iwHkYyDvZGANJJYn-5" edge="1">
          <mxGeometry relative="1" as="geometry" />
        </mxCell>
        <mxCell id="cXa9iwHkYyDvZGANJJYn-10" style="edgeStyle=orthogonalEdgeStyle;rounded=0;orthogonalLoop=1;jettySize=auto;html=1;exitX=0.5;exitY=1;exitDx=0;exitDy=0;entryX=0;entryY=0.5;entryDx=0;entryDy=0;fontSize=25;" parent="hKFb7bivR6nwUs9oMAIg-1" source="hKFb7bivR6nwUs9oMAIg-11" target="cXa9iwHkYyDvZGANJJYn-9" edge="1">
          <mxGeometry relative="1" as="geometry" />
        </mxCell>
        <mxCell id="cXa9iwHkYyDvZGANJJYn-11" style="edgeStyle=orthogonalEdgeStyle;rounded=0;orthogonalLoop=1;jettySize=auto;html=1;exitX=0.5;exitY=1;exitDx=0;exitDy=0;entryX=0;entryY=0.5;entryDx=0;entryDy=0;fontSize=25;" parent="hKFb7bivR6nwUs9oMAIg-1" source="hKFb7bivR6nwUs9oMAIg-11" target="cXa9iwHkYyDvZGANJJYn-8" edge="1">
          <mxGeometry relative="1" as="geometry" />
        </mxCell>
        <mxCell id="hKFb7bivR6nwUs9oMAIg-11" value="&lt;u style=&quot;font-size: 15px;&quot;&gt;3. Software&lt;/u&gt;" style="rounded=1;whiteSpace=wrap;html=1;movable=0;fontSize=15;fillColor=#dae8fc;strokeColor=#6c8ebf;" parent="hKFb7bivR6nwUs9oMAIg-1" vertex="1">
          <mxGeometry x="-189" y="-449" width="120" height="60" as="geometry" />
        </mxCell>
        <mxCell id="hKFb7bivR6nwUs9oMAIg-12" value="3.1 Planteamiento de requerimientos." style="rounded=1;whiteSpace=wrap;html=1;movable=0;fontSize=13;fillColor=#dae8fc;strokeColor=#6c8ebf;" parent="hKFb7bivR6nwUs9oMAIg-1" vertex="1">
          <mxGeometry x="-72" y="-360" width="120" height="60" as="geometry" />
        </mxCell>
        <mxCell id="hKFb7bivR6nwUs9oMAIg-67" style="edgeStyle=orthogonalEdgeStyle;rounded=0;orthogonalLoop=1;jettySize=auto;html=1;exitX=0.5;exitY=1;exitDx=0;exitDy=0;entryX=0;entryY=0.5;entryDx=0;entryDy=0;" parent="hKFb7bivR6nwUs9oMAIg-1" source="hKFb7bivR6nwUs9oMAIg-17" target="hKFb7bivR6nwUs9oMAIg-18" edge="1">
          <mxGeometry relative="1" as="geometry" />
        </mxCell>
        <mxCell id="hKFb7bivR6nwUs9oMAIg-68" style="edgeStyle=orthogonalEdgeStyle;rounded=0;orthogonalLoop=1;jettySize=auto;html=1;exitX=0.5;exitY=1;exitDx=0;exitDy=0;entryX=0;entryY=0.5;entryDx=0;entryDy=0;" parent="hKFb7bivR6nwUs9oMAIg-1" source="hKFb7bivR6nwUs9oMAIg-17" target="hKFb7bivR6nwUs9oMAIg-19" edge="1">
          <mxGeometry relative="1" as="geometry" />
        </mxCell>
        <mxCell id="hKFb7bivR6nwUs9oMAIg-69" style="edgeStyle=orthogonalEdgeStyle;rounded=0;orthogonalLoop=1;jettySize=auto;html=1;exitX=0.5;exitY=1;exitDx=0;exitDy=0;entryX=0;entryY=0.5;entryDx=0;entryDy=0;" parent="hKFb7bivR6nwUs9oMAIg-1" source="hKFb7bivR6nwUs9oMAIg-17" target="hKFb7bivR6nwUs9oMAIg-20" edge="1">
          <mxGeometry relative="1" as="geometry" />
        </mxCell>
        <mxCell id="hKFb7bivR6nwUs9oMAIg-70" style="edgeStyle=orthogonalEdgeStyle;rounded=0;orthogonalLoop=1;jettySize=auto;html=1;exitX=0.5;exitY=1;exitDx=0;exitDy=0;entryX=0;entryY=0.5;entryDx=0;entryDy=0;" parent="hKFb7bivR6nwUs9oMAIg-1" source="hKFb7bivR6nwUs9oMAIg-17" target="hKFb7bivR6nwUs9oMAIg-21" edge="1">
          <mxGeometry relative="1" as="geometry" />
        </mxCell>
        <mxCell id="hKFb7bivR6nwUs9oMAIg-71" style="edgeStyle=orthogonalEdgeStyle;rounded=0;orthogonalLoop=1;jettySize=auto;html=1;exitX=0.5;exitY=1;exitDx=0;exitDy=0;entryX=0;entryY=0.5;entryDx=0;entryDy=0;" parent="hKFb7bivR6nwUs9oMAIg-1" source="hKFb7bivR6nwUs9oMAIg-17" target="hKFb7bivR6nwUs9oMAIg-22" edge="1">
          <mxGeometry relative="1" as="geometry" />
        </mxCell>
        <mxCell id="cXa9iwHkYyDvZGANJJYn-22" style="edgeStyle=orthogonalEdgeStyle;rounded=0;orthogonalLoop=1;jettySize=auto;html=1;exitX=0.5;exitY=1;exitDx=0;exitDy=0;entryX=0;entryY=0.5;entryDx=0;entryDy=0;fontSize=25;" parent="hKFb7bivR6nwUs9oMAIg-1" source="hKFb7bivR6nwUs9oMAIg-17" target="cXa9iwHkYyDvZGANJJYn-19" edge="1">
          <mxGeometry relative="1" as="geometry" />
        </mxCell>
        <mxCell id="cXa9iwHkYyDvZGANJJYn-23" style="edgeStyle=orthogonalEdgeStyle;rounded=0;orthogonalLoop=1;jettySize=auto;html=1;exitX=0.5;exitY=1;exitDx=0;exitDy=0;entryX=0;entryY=0.5;entryDx=0;entryDy=0;fontSize=25;" parent="hKFb7bivR6nwUs9oMAIg-1" source="hKFb7bivR6nwUs9oMAIg-17" target="cXa9iwHkYyDvZGANJJYn-20" edge="1">
          <mxGeometry relative="1" as="geometry" />
        </mxCell>
        <mxCell id="hKFb7bivR6nwUs9oMAIg-17" value="&lt;u style=&quot;font-size: 15px;&quot;&gt;4. Manufactura&lt;/u&gt;" style="rounded=1;whiteSpace=wrap;html=1;movable=0;fontSize=15;fillColor=#d5e8d4;strokeColor=#82b366;" parent="hKFb7bivR6nwUs9oMAIg-1" vertex="1">
          <mxGeometry x="114" y="-449" width="120" height="60" as="geometry" />
        </mxCell>
        <mxCell id="hKFb7bivR6nwUs9oMAIg-18" value="4.1 Elaboracion del housing" style="rounded=1;whiteSpace=wrap;html=1;movable=0;fontSize=13;fillColor=#d5e8d4;strokeColor=#82b366;" parent="hKFb7bivR6nwUs9oMAIg-1" vertex="1">
          <mxGeometry x="225" y="-360" width="120" height="60" as="geometry" />
        </mxCell>
        <mxCell id="hKFb7bivR6nwUs9oMAIg-19" value="4.2 Elaboracion de piezas no estandarizadas." style="rounded=1;whiteSpace=wrap;html=1;movable=0;fontSize=13;fillColor=#d5e8d4;strokeColor=#82b366;" parent="hKFb7bivR6nwUs9oMAIg-1" vertex="1">
          <mxGeometry x="225" y="-270" width="120" height="60" as="geometry" />
        </mxCell>
        <mxCell id="hKFb7bivR6nwUs9oMAIg-20" value="4.3. Poblar PCB" style="rounded=1;whiteSpace=wrap;html=1;movable=0;fontSize=13;fillColor=#d5e8d4;strokeColor=#82b366;" parent="hKFb7bivR6nwUs9oMAIg-1" vertex="1">
          <mxGeometry x="225" y="-180" width="120" height="60" as="geometry" />
        </mxCell>
        <mxCell id="hKFb7bivR6nwUs9oMAIg-21" value="4.4 Ensamble del housing" style="rounded=1;whiteSpace=wrap;html=1;movable=0;fontSize=13;fillColor=#d5e8d4;strokeColor=#82b366;" parent="hKFb7bivR6nwUs9oMAIg-1" vertex="1">
          <mxGeometry x="225" y="-89" width="120" height="60" as="geometry" />
        </mxCell>
        <mxCell id="hKFb7bivR6nwUs9oMAIg-22" value="4.5 Ensamble de ruedas de oruja, pinza, engranajes, etc." style="rounded=1;whiteSpace=wrap;html=1;movable=0;fontSize=13;fillColor=#d5e8d4;strokeColor=#82b366;" parent="hKFb7bivR6nwUs9oMAIg-1" vertex="1">
          <mxGeometry x="225" y="1" width="120" height="60" as="geometry" />
        </mxCell>
        <mxCell id="hKFb7bivR6nwUs9oMAIg-72" style="edgeStyle=orthogonalEdgeStyle;rounded=0;orthogonalLoop=1;jettySize=auto;html=1;exitX=0.5;exitY=1;exitDx=0;exitDy=0;entryX=0;entryY=0.5;entryDx=0;entryDy=0;" parent="hKFb7bivR6nwUs9oMAIg-1" source="hKFb7bivR6nwUs9oMAIg-23" target="hKFb7bivR6nwUs9oMAIg-24" edge="1">
          <mxGeometry relative="1" as="geometry" />
        </mxCell>
        <mxCell id="hKFb7bivR6nwUs9oMAIg-73" style="edgeStyle=orthogonalEdgeStyle;rounded=0;orthogonalLoop=1;jettySize=auto;html=1;exitX=0.5;exitY=1;exitDx=0;exitDy=0;entryX=0;entryY=0.5;entryDx=0;entryDy=0;" parent="hKFb7bivR6nwUs9oMAIg-1" source="hKFb7bivR6nwUs9oMAIg-23" target="hKFb7bivR6nwUs9oMAIg-25" edge="1">
          <mxGeometry relative="1" as="geometry" />
        </mxCell>
        <mxCell id="hKFb7bivR6nwUs9oMAIg-74" style="edgeStyle=orthogonalEdgeStyle;rounded=0;orthogonalLoop=1;jettySize=auto;html=1;exitX=0.5;exitY=1;exitDx=0;exitDy=0;entryX=0;entryY=0.5;entryDx=0;entryDy=0;" parent="hKFb7bivR6nwUs9oMAIg-1" source="hKFb7bivR6nwUs9oMAIg-23" target="hKFb7bivR6nwUs9oMAIg-26" edge="1">
          <mxGeometry relative="1" as="geometry" />
        </mxCell>
        <mxCell id="hKFb7bivR6nwUs9oMAIg-76" style="edgeStyle=orthogonalEdgeStyle;rounded=0;orthogonalLoop=1;jettySize=auto;html=1;exitX=0.5;exitY=1;exitDx=0;exitDy=0;entryX=0;entryY=0.5;entryDx=0;entryDy=0;" parent="hKFb7bivR6nwUs9oMAIg-1" source="hKFb7bivR6nwUs9oMAIg-23" target="hKFb7bivR6nwUs9oMAIg-27" edge="1">
          <mxGeometry relative="1" as="geometry" />
        </mxCell>
        <mxCell id="cXa9iwHkYyDvZGANJJYn-25" style="edgeStyle=orthogonalEdgeStyle;rounded=0;orthogonalLoop=1;jettySize=auto;html=1;exitX=0.5;exitY=1;exitDx=0;exitDy=0;entryX=0;entryY=0.5;entryDx=0;entryDy=0;fontSize=25;" parent="hKFb7bivR6nwUs9oMAIg-1" source="hKFb7bivR6nwUs9oMAIg-23" target="cXa9iwHkYyDvZGANJJYn-24" edge="1">
          <mxGeometry relative="1" as="geometry" />
        </mxCell>
        <mxCell id="cXa9iwHkYyDvZGANJJYn-27" style="edgeStyle=orthogonalEdgeStyle;rounded=0;orthogonalLoop=1;jettySize=auto;html=1;exitX=0.5;exitY=1;exitDx=0;exitDy=0;entryX=0;entryY=0.5;entryDx=0;entryDy=0;fontSize=25;" parent="hKFb7bivR6nwUs9oMAIg-1" source="hKFb7bivR6nwUs9oMAIg-23" target="cXa9iwHkYyDvZGANJJYn-26" edge="1">
          <mxGeometry relative="1" as="geometry" />
        </mxCell>
        <mxCell id="cXa9iwHkYyDvZGANJJYn-29" style="edgeStyle=orthogonalEdgeStyle;rounded=0;orthogonalLoop=1;jettySize=auto;html=1;exitX=0.5;exitY=1;exitDx=0;exitDy=0;entryX=0;entryY=0.5;entryDx=0;entryDy=0;fontSize=25;" parent="hKFb7bivR6nwUs9oMAIg-1" source="hKFb7bivR6nwUs9oMAIg-23" target="cXa9iwHkYyDvZGANJJYn-28" edge="1">
          <mxGeometry relative="1" as="geometry" />
        </mxCell>
        <mxCell id="hKFb7bivR6nwUs9oMAIg-23" value="&lt;u style=&quot;font-size: 15px;&quot;&gt;5. Fase de pruebas&lt;/u&gt;" style="rounded=1;whiteSpace=wrap;html=1;movable=0;fontSize=15;fillColor=#e1d5e7;strokeColor=#9673a6;" parent="hKFb7bivR6nwUs9oMAIg-1" vertex="1">
          <mxGeometry x="416" y="-449" width="120" height="60" as="geometry" />
        </mxCell>
        <mxCell id="hKFb7bivR6nwUs9oMAIg-24" value="5.1 Prueba de encendido" style="rounded=1;whiteSpace=wrap;html=1;movable=0;fontSize=13;fillColor=#e1d5e7;strokeColor=#9673a6;" parent="hKFb7bivR6nwUs9oMAIg-1" vertex="1">
          <mxGeometry x="523" y="-360" width="120" height="60" as="geometry" />
        </mxCell>
        <mxCell id="hKFb7bivR6nwUs9oMAIg-25" value="5.2 Prueba de movimiento" style="rounded=1;whiteSpace=wrap;html=1;movable=0;fontSize=13;fillColor=#e1d5e7;strokeColor=#9673a6;" parent="hKFb7bivR6nwUs9oMAIg-1" vertex="1">
          <mxGeometry x="523" y="-270" width="120" height="60" as="geometry" />
        </mxCell>
        <mxCell id="hKFb7bivR6nwUs9oMAIg-26" value="5.4 Prueba de eliminacion de maleza" style="rounded=1;whiteSpace=wrap;html=1;movable=0;fontSize=13;fillColor=#e1d5e7;strokeColor=#9673a6;" parent="hKFb7bivR6nwUs9oMAIg-1" vertex="1">
          <mxGeometry x="523" y="-89" width="120" height="60" as="geometry" />
        </mxCell>
        <mxCell id="hKFb7bivR6nwUs9oMAIg-27" value="5.7 Prueba de funcionamiento general." style="rounded=1;whiteSpace=wrap;html=1;movable=0;fontSize=13;fillColor=#e1d5e7;strokeColor=#9673a6;" parent="hKFb7bivR6nwUs9oMAIg-1" vertex="1">
          <mxGeometry x="523" y="182" width="120" height="60" as="geometry" />
        </mxCell>
        <mxCell id="hKFb7bivR6nwUs9oMAIg-55" style="edgeStyle=orthogonalEdgeStyle;rounded=0;orthogonalLoop=1;jettySize=auto;html=1;exitX=0.5;exitY=1;exitDx=0;exitDy=0;entryX=0;entryY=0.5;entryDx=0;entryDy=0;" parent="hKFb7bivR6nwUs9oMAIg-1" source="hKFb7bivR6nwUs9oMAIg-30" target="hKFb7bivR6nwUs9oMAIg-31" edge="1">
          <mxGeometry relative="1" as="geometry" />
        </mxCell>
        <mxCell id="hKFb7bivR6nwUs9oMAIg-56" style="edgeStyle=orthogonalEdgeStyle;rounded=0;orthogonalLoop=1;jettySize=auto;html=1;exitX=0.5;exitY=1;exitDx=0;exitDy=0;entryX=0;entryY=0.5;entryDx=0;entryDy=0;" parent="hKFb7bivR6nwUs9oMAIg-1" source="hKFb7bivR6nwUs9oMAIg-30" target="hKFb7bivR6nwUs9oMAIg-32" edge="1">
          <mxGeometry relative="1" as="geometry" />
        </mxCell>
        <mxCell id="hKFb7bivR6nwUs9oMAIg-57" style="edgeStyle=orthogonalEdgeStyle;rounded=0;orthogonalLoop=1;jettySize=auto;html=1;exitX=0.5;exitY=1;exitDx=0;exitDy=0;entryX=0;entryY=0.5;entryDx=0;entryDy=0;" parent="hKFb7bivR6nwUs9oMAIg-1" source="hKFb7bivR6nwUs9oMAIg-30" target="hKFb7bivR6nwUs9oMAIg-33" edge="1">
          <mxGeometry relative="1" as="geometry" />
        </mxCell>
        <mxCell id="hKFb7bivR6nwUs9oMAIg-58" style="edgeStyle=orthogonalEdgeStyle;rounded=0;orthogonalLoop=1;jettySize=auto;html=1;exitX=0.5;exitY=1;exitDx=0;exitDy=0;entryX=0;entryY=0.5;entryDx=0;entryDy=0;" parent="hKFb7bivR6nwUs9oMAIg-1" source="hKFb7bivR6nwUs9oMAIg-30" target="hKFb7bivR6nwUs9oMAIg-34" edge="1">
          <mxGeometry relative="1" as="geometry" />
        </mxCell>
        <mxCell id="hKFb7bivR6nwUs9oMAIg-59" style="edgeStyle=orthogonalEdgeStyle;rounded=0;orthogonalLoop=1;jettySize=auto;html=1;exitX=0.5;exitY=1;exitDx=0;exitDy=0;entryX=0;entryY=0.5;entryDx=0;entryDy=0;" parent="hKFb7bivR6nwUs9oMAIg-1" source="hKFb7bivR6nwUs9oMAIg-30" target="hKFb7bivR6nwUs9oMAIg-36" edge="1">
          <mxGeometry relative="1" as="geometry" />
        </mxCell>
        <mxCell id="hKFb7bivR6nwUs9oMAIg-60" style="edgeStyle=orthogonalEdgeStyle;rounded=0;orthogonalLoop=1;jettySize=auto;html=1;exitX=0.5;exitY=1;exitDx=0;exitDy=0;entryX=0;entryY=0.5;entryDx=0;entryDy=0;" parent="hKFb7bivR6nwUs9oMAIg-1" source="hKFb7bivR6nwUs9oMAIg-30" target="hKFb7bivR6nwUs9oMAIg-35" edge="1">
          <mxGeometry relative="1" as="geometry" />
        </mxCell>
        <mxCell id="cXa9iwHkYyDvZGANJJYn-14" style="edgeStyle=orthogonalEdgeStyle;rounded=0;orthogonalLoop=1;jettySize=auto;html=1;exitX=0.5;exitY=1;exitDx=0;exitDy=0;entryX=0;entryY=0.5;entryDx=0;entryDy=0;fontSize=25;" parent="hKFb7bivR6nwUs9oMAIg-1" source="hKFb7bivR6nwUs9oMAIg-30" target="cXa9iwHkYyDvZGANJJYn-12" edge="1">
          <mxGeometry relative="1" as="geometry" />
        </mxCell>
        <mxCell id="cXa9iwHkYyDvZGANJJYn-15" style="edgeStyle=orthogonalEdgeStyle;rounded=0;orthogonalLoop=1;jettySize=auto;html=1;exitX=0.5;exitY=1;exitDx=0;exitDy=0;entryX=0;entryY=0.5;entryDx=0;entryDy=0;fontSize=25;" parent="hKFb7bivR6nwUs9oMAIg-1" source="hKFb7bivR6nwUs9oMAIg-30" target="cXa9iwHkYyDvZGANJJYn-13" edge="1">
          <mxGeometry relative="1" as="geometry" />
        </mxCell>
        <mxCell id="hKFb7bivR6nwUs9oMAIg-30" value="&lt;u style=&quot;font-size: 15px&quot;&gt;2. Diseño electronico&lt;/u&gt;" style="rounded=1;whiteSpace=wrap;html=1;movable=0;fontSize=15;fillColor=#ffe6cc;strokeColor=#d79b00;" parent="hKFb7bivR6nwUs9oMAIg-1" vertex="1">
          <mxGeometry x="-491" y="-449" width="120" height="60" as="geometry" />
        </mxCell>
        <mxCell id="hKFb7bivR6nwUs9oMAIg-31" value="2.1 Eleccion de los componentes" style="rounded=1;whiteSpace=wrap;html=1;movable=0;fontSize=13;fillColor=#ffe6cc;strokeColor=#d79b00;" parent="hKFb7bivR6nwUs9oMAIg-1" vertex="1">
          <mxGeometry x="-375" y="-360" width="120" height="60" as="geometry" />
        </mxCell>
        <mxCell id="hKFb7bivR6nwUs9oMAIg-32" value="2.2 Desarrollo del esquematico" style="rounded=1;whiteSpace=wrap;html=1;movable=0;fontSize=13;fillColor=#ffe6cc;strokeColor=#d79b00;" parent="hKFb7bivR6nwUs9oMAIg-1" vertex="1">
          <mxGeometry x="-375" y="-270" width="120" height="60" as="geometry" />
        </mxCell>
        <mxCell id="hKFb7bivR6nwUs9oMAIg-33" value="2.3 Desarrollo del Layout" style="rounded=1;whiteSpace=wrap;html=1;movable=0;fontSize=13;fillColor=#ffe6cc;strokeColor=#d79b00;" parent="hKFb7bivR6nwUs9oMAIg-1" vertex="1">
          <mxGeometry x="-375" y="-179" width="120" height="60" as="geometry" />
        </mxCell>
        <mxCell id="hKFb7bivR6nwUs9oMAIg-34" value="2.5 Ruteo de componentes." style="rounded=1;whiteSpace=wrap;html=1;movable=0;fontSize=13;fillColor=#ffe6cc;strokeColor=#d79b00;" parent="hKFb7bivR6nwUs9oMAIg-1" vertex="1">
          <mxGeometry x="-375" y="1" width="120" height="60" as="geometry" />
        </mxCell>
        <mxCell id="hKFb7bivR6nwUs9oMAIg-35" value="2.6 Analisis de seguridad y riesgos" style="rounded=1;whiteSpace=wrap;html=1;movable=0;fontSize=13;fillColor=#ffe6cc;strokeColor=#d79b00;" parent="hKFb7bivR6nwUs9oMAIg-1" vertex="1">
          <mxGeometry x="-375" y="91" width="120" height="60" as="geometry" />
        </mxCell>
        <mxCell id="hKFb7bivR6nwUs9oMAIg-36" value="2.4 Simulaciones." style="rounded=1;whiteSpace=wrap;html=1;movable=0;fontSize=13;fillColor=#ffe6cc;strokeColor=#d79b00;" parent="hKFb7bivR6nwUs9oMAIg-1" vertex="1">
          <mxGeometry x="-375" y="-89" width="120" height="60" as="geometry" />
        </mxCell>
        <mxCell id="hKFb7bivR6nwUs9oMAIg-78" style="edgeStyle=orthogonalEdgeStyle;rounded=0;orthogonalLoop=1;jettySize=auto;html=1;exitX=0.5;exitY=1;exitDx=0;exitDy=0;entryX=0;entryY=0.5;entryDx=0;entryDy=0;" parent="hKFb7bivR6nwUs9oMAIg-1" source="hKFb7bivR6nwUs9oMAIg-38" target="hKFb7bivR6nwUs9oMAIg-39" edge="1">
          <mxGeometry relative="1" as="geometry" />
        </mxCell>
        <mxCell id="hKFb7bivR6nwUs9oMAIg-79" style="edgeStyle=orthogonalEdgeStyle;rounded=0;orthogonalLoop=1;jettySize=auto;html=1;exitX=0.5;exitY=1;exitDx=0;exitDy=0;entryX=0;entryY=0.5;entryDx=0;entryDy=0;" parent="hKFb7bivR6nwUs9oMAIg-1" source="hKFb7bivR6nwUs9oMAIg-38" target="hKFb7bivR6nwUs9oMAIg-40" edge="1">
          <mxGeometry relative="1" as="geometry" />
        </mxCell>
        <mxCell id="hKFb7bivR6nwUs9oMAIg-80" style="edgeStyle=orthogonalEdgeStyle;rounded=0;orthogonalLoop=1;jettySize=auto;html=1;exitX=0.5;exitY=1;exitDx=0;exitDy=0;entryX=0;entryY=0.5;entryDx=0;entryDy=0;" parent="hKFb7bivR6nwUs9oMAIg-1" source="hKFb7bivR6nwUs9oMAIg-38" target="hKFb7bivR6nwUs9oMAIg-41" edge="1">
          <mxGeometry relative="1" as="geometry" />
        </mxCell>
        <mxCell id="hKFb7bivR6nwUs9oMAIg-38" value="&lt;u style=&quot;font-size: 15px;&quot;&gt;6. Control de calidad&lt;/u&gt;" style="rounded=1;whiteSpace=wrap;html=1;movable=0;fontSize=15;fillColor=#f8cecc;strokeColor=#b85450;" parent="hKFb7bivR6nwUs9oMAIg-1" vertex="1">
          <mxGeometry x="718" y="-449" width="120" height="60" as="geometry" />
        </mxCell>
        <mxCell id="hKFb7bivR6nwUs9oMAIg-39" value="6.1 Verificacion de conexiones." style="rounded=1;whiteSpace=wrap;html=1;movable=0;fontSize=13;fillColor=#f8cecc;strokeColor=#b85450;" parent="hKFb7bivR6nwUs9oMAIg-1" vertex="1">
          <mxGeometry x="825" y="-360" width="120" height="60" as="geometry" />
        </mxCell>
        <mxCell id="hKFb7bivR6nwUs9oMAIg-40" value="6.3 Verificacion de cumplimiento IP." style="rounded=1;whiteSpace=wrap;html=1;movable=0;fontSize=13;fillColor=#f8cecc;strokeColor=#b85450;" parent="hKFb7bivR6nwUs9oMAIg-1" vertex="1">
          <mxGeometry x="825" y="-180" width="120" height="60" as="geometry" />
        </mxCell>
        <mxCell id="hKFb7bivR6nwUs9oMAIg-41" value="6.2 Verificacion de parametros de seguridad" style="rounded=1;whiteSpace=wrap;html=1;movable=0;fontSize=13;fillColor=#f8cecc;strokeColor=#b85450;" parent="hKFb7bivR6nwUs9oMAIg-1" vertex="1">
          <mxGeometry x="825" y="-270" width="120" height="60" as="geometry" />
        </mxCell>
        <mxCell id="hKFb7bivR6nwUs9oMAIg-44" value="3.2 Planteamiento de las I/O del sistema." style="rounded=1;whiteSpace=wrap;html=1;movable=0;fontSize=13;fillColor=#dae8fc;strokeColor=#6c8ebf;" parent="hKFb7bivR6nwUs9oMAIg-1" vertex="1">
          <mxGeometry x="-72" y="-270" width="120" height="60" as="geometry" />
        </mxCell>
        <mxCell id="hKFb7bivR6nwUs9oMAIg-45" value="3.7 Desarrollo de interfaz de usuario" style="rounded=1;whiteSpace=wrap;html=1;movable=0;fontSize=13;fillColor=#dae8fc;strokeColor=#6c8ebf;" parent="hKFb7bivR6nwUs9oMAIg-1" vertex="1">
          <mxGeometry x="-72" y="181" width="120" height="60" as="geometry" />
        </mxCell>
        <mxCell id="hKFb7bivR6nwUs9oMAIg-46" value="3.9 Prueba de la interfaz y programacion final" style="rounded=1;whiteSpace=wrap;html=1;movable=0;fontSize=13;fillColor=#dae8fc;strokeColor=#6c8ebf;" parent="hKFb7bivR6nwUs9oMAIg-1" vertex="1">
          <mxGeometry x="-72" y="361" width="120" height="60" as="geometry" />
        </mxCell>
        <mxCell id="hKFb7bivR6nwUs9oMAIg-47" value="3.8 Analisis de seguridad y riesgos" style="rounded=1;whiteSpace=wrap;html=1;movable=0;fontSize=13;fillColor=#dae8fc;strokeColor=#6c8ebf;" parent="hKFb7bivR6nwUs9oMAIg-1" vertex="1">
          <mxGeometry x="-72" y="271" width="120" height="60" as="geometry" />
        </mxCell>
        <mxCell id="hKFb7bivR6nwUs9oMAIg-83" style="edgeStyle=orthogonalEdgeStyle;rounded=0;orthogonalLoop=1;jettySize=auto;html=1;exitX=0.5;exitY=1;exitDx=0;exitDy=0;entryX=0;entryY=0.5;entryDx=0;entryDy=0;" parent="hKFb7bivR6nwUs9oMAIg-1" source="hKFb7bivR6nwUs9oMAIg-49" target="hKFb7bivR6nwUs9oMAIg-81" edge="1">
          <mxGeometry relative="1" as="geometry" />
        </mxCell>
        <mxCell id="hKFb7bivR6nwUs9oMAIg-84" style="edgeStyle=orthogonalEdgeStyle;rounded=0;orthogonalLoop=1;jettySize=auto;html=1;exitX=0.5;exitY=1;exitDx=0;exitDy=0;entryX=0;entryY=0.5;entryDx=0;entryDy=0;" parent="hKFb7bivR6nwUs9oMAIg-1" source="hKFb7bivR6nwUs9oMAIg-49" target="hKFb7bivR6nwUs9oMAIg-82" edge="1">
          <mxGeometry relative="1" as="geometry" />
        </mxCell>
        <mxCell id="hKFb7bivR6nwUs9oMAIg-49" value="&lt;u style=&quot;font-size: 15px;&quot;&gt;7. Distribucion&lt;/u&gt;" style="rounded=1;whiteSpace=wrap;html=1;movable=0;fontSize=15;fillColor=#ffe6cc;strokeColor=#d79b00;" parent="hKFb7bivR6nwUs9oMAIg-1" vertex="1">
          <mxGeometry x="1020" y="-449" width="120" height="60" as="geometry" />
        </mxCell>
        <mxCell id="hKFb7bivR6nwUs9oMAIg-81" value="7.1 Empaque del producto" style="rounded=1;whiteSpace=wrap;html=1;movable=0;fontSize=13;fillColor=#ffe6cc;strokeColor=#d79b00;" parent="hKFb7bivR6nwUs9oMAIg-1" vertex="1">
          <mxGeometry x="1108" y="-360" width="120" height="60" as="geometry" />
        </mxCell>
        <mxCell id="hKFb7bivR6nwUs9oMAIg-82" value="7.2 Distribucion" style="rounded=1;whiteSpace=wrap;html=1;movable=0;fontSize=13;fillColor=#ffe6cc;strokeColor=#d79b00;" parent="hKFb7bivR6nwUs9oMAIg-1" vertex="1">
          <mxGeometry x="1108" y="-270" width="120" height="60" as="geometry" />
        </mxCell>
        <mxCell id="cXa9iwHkYyDvZGANJJYn-0" value="1.4 Revision del diseño CAD por el equipo de ingenieria.&amp;nbsp;" style="rounded=1;whiteSpace=wrap;html=1;movable=0;fontSize=13;fillColor=#F8CECC;strokeColor=#b85450;" parent="hKFb7bivR6nwUs9oMAIg-1" vertex="1">
          <mxGeometry x="-679" y="-89" width="120" height="60" as="geometry" />
        </mxCell>
        <mxCell id="cXa9iwHkYyDvZGANJJYn-1" value="1.5 Revision del diseño CAD por el equipo de manufactura.&amp;nbsp;" style="rounded=1;whiteSpace=wrap;html=1;movable=0;fontSize=13;fillColor=#F8CECC;strokeColor=#b85450;" parent="hKFb7bivR6nwUs9oMAIg-1" vertex="1">
          <mxGeometry x="-679" y="1" width="120" height="60" as="geometry" />
        </mxCell>
        <mxCell id="cXa9iwHkYyDvZGANJJYn-4" value="3.3 Programacion." style="rounded=1;whiteSpace=wrap;html=1;movable=0;fontSize=13;fillColor=#dae8fc;strokeColor=#6c8ebf;" parent="hKFb7bivR6nwUs9oMAIg-1" vertex="1">
          <mxGeometry x="-72" y="-180" width="120" height="60" as="geometry" />
        </mxCell>
        <mxCell id="cXa9iwHkYyDvZGANJJYn-5" value="3.4 Implementacion de inteligencia artificial" style="rounded=1;whiteSpace=wrap;html=1;movable=0;fontSize=13;fillColor=#dae8fc;strokeColor=#6c8ebf;" parent="hKFb7bivR6nwUs9oMAIg-1" vertex="1">
          <mxGeometry x="-72" y="-90" width="120" height="60" as="geometry" />
        </mxCell>
        <mxCell id="cXa9iwHkYyDvZGANJJYn-8" value="3.5 Desarrollo de controles" style="rounded=1;whiteSpace=wrap;html=1;movable=0;fontSize=13;fillColor=#dae8fc;strokeColor=#6c8ebf;" parent="hKFb7bivR6nwUs9oMAIg-1" vertex="1">
          <mxGeometry x="-72" width="120" height="60" as="geometry" />
        </mxCell>
        <mxCell id="cXa9iwHkYyDvZGANJJYn-9" value="3.6 Prueba de la programacion." style="rounded=1;whiteSpace=wrap;html=1;movable=0;fontSize=13;fillColor=#dae8fc;strokeColor=#6c8ebf;" parent="hKFb7bivR6nwUs9oMAIg-1" vertex="1">
          <mxGeometry x="-72" y="91" width="120" height="60" as="geometry" />
        </mxCell>
        <mxCell id="cXa9iwHkYyDvZGANJJYn-12" value="2.7 Revision del diseño ECAD por el equipo de ingenieria.&amp;nbsp;" style="rounded=1;whiteSpace=wrap;html=1;movable=0;fontSize=13;fillColor=#ffe6cc;strokeColor=#d79b00;" parent="hKFb7bivR6nwUs9oMAIg-1" vertex="1">
          <mxGeometry x="-375" y="182" width="120" height="60" as="geometry" />
        </mxCell>
        <mxCell id="cXa9iwHkYyDvZGANJJYn-13" value="2.8 Revision del diseño ECAD por el equipo de manufactura.&amp;nbsp;" style="rounded=1;whiteSpace=wrap;html=1;movable=0;fontSize=13;fillColor=#ffe6cc;strokeColor=#d79b00;" parent="hKFb7bivR6nwUs9oMAIg-1" vertex="1">
          <mxGeometry x="-375" y="272" width="120" height="60" as="geometry" />
        </mxCell>
        <mxCell id="cXa9iwHkYyDvZGANJJYn-19" value="4.6 Ensamble general." style="rounded=1;whiteSpace=wrap;html=1;movable=0;fontSize=13;fillColor=#d5e8d4;strokeColor=#82b366;" parent="hKFb7bivR6nwUs9oMAIg-1" vertex="1">
          <mxGeometry x="225" y="91" width="120" height="60" as="geometry" />
        </mxCell>
        <mxCell id="cXa9iwHkYyDvZGANJJYn-20" value="4.7 Cableado y Carga del programa" style="rounded=1;whiteSpace=wrap;html=1;movable=0;fontSize=13;fillColor=#d5e8d4;strokeColor=#82b366;" parent="hKFb7bivR6nwUs9oMAIg-1" vertex="1">
          <mxGeometry x="225" y="181" width="120" height="60" as="geometry" />
        </mxCell>
        <mxCell id="cXa9iwHkYyDvZGANJJYn-24" value="5.3 Pruebas de mapeo y localizacion." style="rounded=1;whiteSpace=wrap;html=1;movable=0;fontSize=13;fillColor=#e1d5e7;strokeColor=#9673a6;" parent="hKFb7bivR6nwUs9oMAIg-1" vertex="1">
          <mxGeometry x="523" y="-179" width="120" height="60" as="geometry" />
        </mxCell>
        <mxCell id="cXa9iwHkYyDvZGANJJYn-26" value="5.5 Prueba de interfaz de usuario." style="rounded=1;whiteSpace=wrap;html=1;movable=0;fontSize=13;fillColor=#e1d5e7;strokeColor=#9673a6;" parent="hKFb7bivR6nwUs9oMAIg-1" vertex="1">
          <mxGeometry x="523" y="1" width="120" height="60" as="geometry" />
        </mxCell>
        <mxCell id="cXa9iwHkYyDvZGANJJYn-28" value="5.6 Prueba de resistencia contra polvo y salpicadura." style="rounded=1;whiteSpace=wrap;html=1;movable=0;fontSize=13;fillColor=#e1d5e7;strokeColor=#9673a6;" parent="hKFb7bivR6nwUs9oMAIg-1" vertex="1">
          <mxGeometry x="523" y="92" width="120" height="60" as="geometry" />
        </mxCell>
      </root>
    </mxGraphModel>
  </diagram>
  <diagram id="d0qMbTWMS64XjjL5R1oy" name="Diagrama de flujo">
    <mxGraphModel dx="221" dy="859" grid="0" gridSize="10" guides="1" tooltips="1" connect="1" arrows="1" fold="1" page="0" pageScale="1" pageWidth="850" pageHeight="1100" math="0" shadow="0">
      <root>
        <mxCell id="C_QugvXMSl1qowbGgs-Q-0" />
        <mxCell id="C_QugvXMSl1qowbGgs-Q-1" parent="C_QugvXMSl1qowbGgs-Q-0" />
        <mxCell id="C_QugvXMSl1qowbGgs-Q-5" value="" style="edgeStyle=orthogonalEdgeStyle;rounded=0;orthogonalLoop=1;jettySize=auto;html=1;" edge="1" parent="C_QugvXMSl1qowbGgs-Q-1" source="C_QugvXMSl1qowbGgs-Q-3" target="C_QugvXMSl1qowbGgs-Q-4">
          <mxGeometry relative="1" as="geometry" />
        </mxCell>
        <mxCell id="C_QugvXMSl1qowbGgs-Q-3" value="Inicio" style="strokeWidth=2;html=1;shape=mxgraph.flowchart.terminator;whiteSpace=wrap;gradientColor=none;align=center;" vertex="1" parent="C_QugvXMSl1qowbGgs-Q-1">
          <mxGeometry x="1178" y="-49" width="124" height="67" as="geometry" />
        </mxCell>
        <mxCell id="C_QugvXMSl1qowbGgs-Q-7" value="" style="edgeStyle=orthogonalEdgeStyle;rounded=0;orthogonalLoop=1;jettySize=auto;html=1;" edge="1" parent="C_QugvXMSl1qowbGgs-Q-1" source="C_QugvXMSl1qowbGgs-Q-4" target="C_QugvXMSl1qowbGgs-Q-6">
          <mxGeometry relative="1" as="geometry" />
        </mxCell>
        <mxCell id="C_QugvXMSl1qowbGgs-Q-4" value="Encendido del equipo" style="whiteSpace=wrap;html=1;strokeWidth=2;" vertex="1" parent="C_QugvXMSl1qowbGgs-Q-1">
          <mxGeometry x="1180" y="101.5" width="120" height="60" as="geometry" />
        </mxCell>
        <mxCell id="C_QugvXMSl1qowbGgs-Q-9" value="" style="edgeStyle=orthogonalEdgeStyle;rounded=0;orthogonalLoop=1;jettySize=auto;html=1;" edge="1" parent="C_QugvXMSl1qowbGgs-Q-1" source="C_QugvXMSl1qowbGgs-Q-6" target="C_QugvXMSl1qowbGgs-Q-8">
          <mxGeometry relative="1" as="geometry" />
        </mxCell>
        <mxCell id="C_QugvXMSl1qowbGgs-Q-6" value="Revisar correcto funcionamiento" style="whiteSpace=wrap;html=1;strokeWidth=2;" vertex="1" parent="C_QugvXMSl1qowbGgs-Q-1">
          <mxGeometry x="1180" y="241.5" width="120" height="60" as="geometry" />
        </mxCell>
        <mxCell id="C_QugvXMSl1qowbGgs-Q-13" value="" style="edgeStyle=orthogonalEdgeStyle;rounded=0;orthogonalLoop=1;jettySize=auto;html=1;" edge="1" parent="C_QugvXMSl1qowbGgs-Q-1" source="C_QugvXMSl1qowbGgs-Q-8" target="C_QugvXMSl1qowbGgs-Q-12">
          <mxGeometry relative="1" as="geometry" />
        </mxCell>
        <mxCell id="C_QugvXMSl1qowbGgs-Q-22" value="" style="edgeStyle=orthogonalEdgeStyle;rounded=0;orthogonalLoop=1;jettySize=auto;html=1;" edge="1" parent="C_QugvXMSl1qowbGgs-Q-1" source="C_QugvXMSl1qowbGgs-Q-8" target="C_QugvXMSl1qowbGgs-Q-21">
          <mxGeometry relative="1" as="geometry" />
        </mxCell>
        <mxCell id="C_QugvXMSl1qowbGgs-Q-8" value="Todo funciona correctamente?" style="rhombus;whiteSpace=wrap;html=1;strokeWidth=2;" vertex="1" parent="C_QugvXMSl1qowbGgs-Q-1">
          <mxGeometry x="1181" y="375" width="118" height="118.5" as="geometry" />
        </mxCell>
        <mxCell id="C_QugvXMSl1qowbGgs-Q-56" value="" style="edgeStyle=orthogonalEdgeStyle;rounded=0;orthogonalLoop=1;jettySize=auto;html=1;" edge="1" parent="C_QugvXMSl1qowbGgs-Q-1" source="C_QugvXMSl1qowbGgs-Q-12" target="C_QugvXMSl1qowbGgs-Q-55">
          <mxGeometry relative="1" as="geometry" />
        </mxCell>
        <mxCell id="C_QugvXMSl1qowbGgs-Q-12" value="Detener el equipo" style="whiteSpace=wrap;html=1;strokeWidth=2;" vertex="1" parent="C_QugvXMSl1qowbGgs-Q-1">
          <mxGeometry x="983" y="404.25" width="120" height="60" as="geometry" />
        </mxCell>
        <mxCell id="C_QugvXMSl1qowbGgs-Q-17" value="" style="edgeStyle=orthogonalEdgeStyle;rounded=0;orthogonalLoop=1;jettySize=auto;html=1;" edge="1" parent="C_QugvXMSl1qowbGgs-Q-1" source="C_QugvXMSl1qowbGgs-Q-16" target="C_QugvXMSl1qowbGgs-Q-12">
          <mxGeometry relative="1" as="geometry" />
        </mxCell>
        <mxCell id="C_QugvXMSl1qowbGgs-Q-16" value="A" style="strokeWidth=2;html=1;shape=mxgraph.flowchart.start_2;whiteSpace=wrap;" vertex="1" parent="C_QugvXMSl1qowbGgs-Q-1">
          <mxGeometry x="1025.5" y="328" width="35" height="35" as="geometry" />
        </mxCell>
        <mxCell id="C_QugvXMSl1qowbGgs-Q-18" value="No" style="text;html=1;strokeColor=none;fillColor=none;align=center;verticalAlign=middle;whiteSpace=wrap;rounded=0;" vertex="1" parent="C_QugvXMSl1qowbGgs-Q-1">
          <mxGeometry x="1120" y="404.25" width="60" height="30" as="geometry" />
        </mxCell>
        <mxCell id="C_QugvXMSl1qowbGgs-Q-24" value="" style="edgeStyle=orthogonalEdgeStyle;rounded=0;orthogonalLoop=1;jettySize=auto;html=1;" edge="1" parent="C_QugvXMSl1qowbGgs-Q-1" source="C_QugvXMSl1qowbGgs-Q-21" target="C_QugvXMSl1qowbGgs-Q-23">
          <mxGeometry relative="1" as="geometry" />
        </mxCell>
        <mxCell id="C_QugvXMSl1qowbGgs-Q-21" value="Parametros de usuario" style="shape=parallelogram;perimeter=parallelogramPerimeter;whiteSpace=wrap;html=1;fixedSize=1;strokeWidth=2;" vertex="1" parent="C_QugvXMSl1qowbGgs-Q-1">
          <mxGeometry x="1180" y="602.75" width="120" height="60" as="geometry" />
        </mxCell>
        <mxCell id="C_QugvXMSl1qowbGgs-Q-25" style="edgeStyle=orthogonalEdgeStyle;rounded=0;orthogonalLoop=1;jettySize=auto;html=1;exitX=0;exitY=0.5;exitDx=0;exitDy=0;entryX=0;entryY=0.5;entryDx=0;entryDy=0;" edge="1" parent="C_QugvXMSl1qowbGgs-Q-1" source="C_QugvXMSl1qowbGgs-Q-23" target="C_QugvXMSl1qowbGgs-Q-21">
          <mxGeometry relative="1" as="geometry">
            <Array as="points">
              <mxPoint x="1102" y="785" />
              <mxPoint x="1102" y="633" />
            </Array>
          </mxGeometry>
        </mxCell>
        <mxCell id="C_QugvXMSl1qowbGgs-Q-29" value="" style="edgeStyle=orthogonalEdgeStyle;rounded=0;orthogonalLoop=1;jettySize=auto;html=1;" edge="1" parent="C_QugvXMSl1qowbGgs-Q-1" source="C_QugvXMSl1qowbGgs-Q-23" target="C_QugvXMSl1qowbGgs-Q-28">
          <mxGeometry relative="1" as="geometry" />
        </mxCell>
        <mxCell id="C_QugvXMSl1qowbGgs-Q-23" value="Se recibieron los parametros del usuario?" style="rhombus;whiteSpace=wrap;html=1;strokeWidth=2;" vertex="1" parent="C_QugvXMSl1qowbGgs-Q-1">
          <mxGeometry x="1174.87" y="720" width="130.25" height="130.25" as="geometry" />
        </mxCell>
        <mxCell id="C_QugvXMSl1qowbGgs-Q-26" value="No" style="text;html=1;strokeColor=none;fillColor=none;align=center;verticalAlign=middle;whiteSpace=wrap;rounded=0;" vertex="1" parent="C_QugvXMSl1qowbGgs-Q-1">
          <mxGeometry x="1109" y="758" width="60" height="30" as="geometry" />
        </mxCell>
        <mxCell id="C_QugvXMSl1qowbGgs-Q-27" value="Si" style="text;html=1;strokeColor=none;fillColor=none;align=center;verticalAlign=middle;whiteSpace=wrap;rounded=0;" vertex="1" parent="C_QugvXMSl1qowbGgs-Q-1">
          <mxGeometry x="1226" y="523" width="60" height="30" as="geometry" />
        </mxCell>
        <mxCell id="C_QugvXMSl1qowbGgs-Q-34" value="" style="edgeStyle=orthogonalEdgeStyle;rounded=0;orthogonalLoop=1;jettySize=auto;html=1;" edge="1" parent="C_QugvXMSl1qowbGgs-Q-1" source="C_QugvXMSl1qowbGgs-Q-28" target="C_QugvXMSl1qowbGgs-Q-33">
          <mxGeometry relative="1" as="geometry" />
        </mxCell>
        <mxCell id="C_QugvXMSl1qowbGgs-Q-28" value="Leer y comparar datos recopilados del entorno" style="whiteSpace=wrap;html=1;strokeWidth=2;" vertex="1" parent="C_QugvXMSl1qowbGgs-Q-1">
          <mxGeometry x="1405.995" y="755.125" width="120" height="60" as="geometry" />
        </mxCell>
        <mxCell id="C_QugvXMSl1qowbGgs-Q-30" value="Si" style="text;html=1;strokeColor=none;fillColor=none;align=center;verticalAlign=middle;whiteSpace=wrap;rounded=0;" vertex="1" parent="C_QugvXMSl1qowbGgs-Q-1">
          <mxGeometry x="1318" y="760" width="60" height="30" as="geometry" />
        </mxCell>
        <mxCell id="C_QugvXMSl1qowbGgs-Q-36" value="" style="edgeStyle=orthogonalEdgeStyle;rounded=0;orthogonalLoop=1;jettySize=auto;html=1;" edge="1" parent="C_QugvXMSl1qowbGgs-Q-1" source="C_QugvXMSl1qowbGgs-Q-33" target="C_QugvXMSl1qowbGgs-Q-35">
          <mxGeometry relative="1" as="geometry" />
        </mxCell>
        <mxCell id="C_QugvXMSl1qowbGgs-Q-38" value="" style="edgeStyle=orthogonalEdgeStyle;rounded=0;orthogonalLoop=1;jettySize=auto;html=1;" edge="1" parent="C_QugvXMSl1qowbGgs-Q-1" source="C_QugvXMSl1qowbGgs-Q-33" target="C_QugvXMSl1qowbGgs-Q-37">
          <mxGeometry relative="1" as="geometry" />
        </mxCell>
        <mxCell id="C_QugvXMSl1qowbGgs-Q-33" value="Hay datos recopilados?" style="rhombus;whiteSpace=wrap;html=1;strokeWidth=2;" vertex="1" parent="C_QugvXMSl1qowbGgs-Q-1">
          <mxGeometry x="1413.43" y="580.19" width="105.13" height="105.13" as="geometry" />
        </mxCell>
        <mxCell id="C_QugvXMSl1qowbGgs-Q-40" value="" style="edgeStyle=orthogonalEdgeStyle;rounded=0;orthogonalLoop=1;jettySize=auto;html=1;" edge="1" parent="C_QugvXMSl1qowbGgs-Q-1" source="C_QugvXMSl1qowbGgs-Q-35" target="C_QugvXMSl1qowbGgs-Q-39">
          <mxGeometry relative="1" as="geometry" />
        </mxCell>
        <mxCell id="C_QugvXMSl1qowbGgs-Q-35" value="Usar datos recopilados" style="whiteSpace=wrap;html=1;strokeWidth=2;" vertex="1" parent="C_QugvXMSl1qowbGgs-Q-1">
          <mxGeometry x="1405.9950000000001" y="417.62500000000006" width="120" height="60" as="geometry" />
        </mxCell>
        <mxCell id="C_QugvXMSl1qowbGgs-Q-41" style="edgeStyle=orthogonalEdgeStyle;rounded=0;orthogonalLoop=1;jettySize=auto;html=1;entryX=1;entryY=0.5;entryDx=0;entryDy=0;" edge="1" parent="C_QugvXMSl1qowbGgs-Q-1" source="C_QugvXMSl1qowbGgs-Q-37" target="C_QugvXMSl1qowbGgs-Q-39">
          <mxGeometry relative="1" as="geometry">
            <Array as="points">
              <mxPoint x="1651" y="308" />
            </Array>
          </mxGeometry>
        </mxCell>
        <mxCell id="C_QugvXMSl1qowbGgs-Q-37" value="Usar datos por defecto" style="whiteSpace=wrap;html=1;strokeWidth=2;" vertex="1" parent="C_QugvXMSl1qowbGgs-Q-1">
          <mxGeometry x="1591.125" y="602.7550000000001" width="120" height="60" as="geometry" />
        </mxCell>
        <mxCell id="C_QugvXMSl1qowbGgs-Q-43" value="" style="edgeStyle=orthogonalEdgeStyle;rounded=0;orthogonalLoop=1;jettySize=auto;html=1;" edge="1" parent="C_QugvXMSl1qowbGgs-Q-1" source="C_QugvXMSl1qowbGgs-Q-39" target="C_QugvXMSl1qowbGgs-Q-42">
          <mxGeometry relative="1" as="geometry" />
        </mxCell>
        <mxCell id="C_QugvXMSl1qowbGgs-Q-39" value="Activar modo de aprendizaje" style="whiteSpace=wrap;html=1;strokeWidth=2;" vertex="1" parent="C_QugvXMSl1qowbGgs-Q-1">
          <mxGeometry x="1405.9950000000001" y="277.62500000000006" width="120" height="60" as="geometry" />
        </mxCell>
        <mxCell id="C_QugvXMSl1qowbGgs-Q-50" value="" style="edgeStyle=orthogonalEdgeStyle;rounded=0;orthogonalLoop=1;jettySize=auto;html=1;entryX=0.5;entryY=0;entryDx=0;entryDy=0;" edge="1" parent="C_QugvXMSl1qowbGgs-Q-1" source="C_QugvXMSl1qowbGgs-Q-42" target="C_QugvXMSl1qowbGgs-Q-44">
          <mxGeometry relative="1" as="geometry">
            <mxPoint x="1465.995" y="85" as="targetPoint" />
            <Array as="points">
              <mxPoint x="1466" y="13" />
              <mxPoint x="1877" y="13" />
            </Array>
          </mxGeometry>
        </mxCell>
        <mxCell id="C_QugvXMSl1qowbGgs-Q-42" value="Iniciar recorrido" style="whiteSpace=wrap;html=1;strokeWidth=2;" vertex="1" parent="C_QugvXMSl1qowbGgs-Q-1">
          <mxGeometry x="1405.9950000000001" y="112.99500000000006" width="120" height="60" as="geometry" />
        </mxCell>
        <mxCell id="C_QugvXMSl1qowbGgs-Q-113" value="" style="edgeStyle=orthogonalEdgeStyle;rounded=0;orthogonalLoop=1;jettySize=auto;html=1;" edge="1" parent="C_QugvXMSl1qowbGgs-Q-1" source="C_QugvXMSl1qowbGgs-Q-44" target="C_QugvXMSl1qowbGgs-Q-64">
          <mxGeometry relative="1" as="geometry" />
        </mxCell>
        <mxCell id="C_QugvXMSl1qowbGgs-Q-115" value="" style="edgeStyle=orthogonalEdgeStyle;rounded=0;orthogonalLoop=1;jettySize=auto;html=1;" edge="1" parent="C_QugvXMSl1qowbGgs-Q-1" source="C_QugvXMSl1qowbGgs-Q-44" target="C_QugvXMSl1qowbGgs-Q-114">
          <mxGeometry relative="1" as="geometry" />
        </mxCell>
        <mxCell id="C_QugvXMSl1qowbGgs-Q-44" value="Detecto obstaculo?" style="rhombus;whiteSpace=wrap;html=1;strokeWidth=2;" vertex="1" parent="C_QugvXMSl1qowbGgs-Q-1">
          <mxGeometry x="1828.31" y="33.12000000000001" width="96.63" height="96.63" as="geometry" />
        </mxCell>
        <mxCell id="C_QugvXMSl1qowbGgs-Q-55" value="Notificar al usuario" style="whiteSpace=wrap;html=1;strokeWidth=2;" vertex="1" parent="C_QugvXMSl1qowbGgs-Q-1">
          <mxGeometry x="983" y="544.25" width="120" height="60" as="geometry" />
        </mxCell>
        <mxCell id="C_QugvXMSl1qowbGgs-Q-57" value="No" style="text;html=1;strokeColor=none;fillColor=none;align=center;verticalAlign=middle;whiteSpace=wrap;rounded=0;" vertex="1" parent="C_QugvXMSl1qowbGgs-Q-1">
          <mxGeometry x="1864.9399999999998" y="147" width="60" height="30" as="geometry" />
        </mxCell>
        <mxCell id="C_QugvXMSl1qowbGgs-Q-60" value="Si" style="text;html=1;strokeColor=none;fillColor=none;align=center;verticalAlign=middle;whiteSpace=wrap;rounded=0;" vertex="1" parent="C_QugvXMSl1qowbGgs-Q-1">
          <mxGeometry x="1451.49" y="514.25" width="60" height="30" as="geometry" />
        </mxCell>
        <mxCell id="C_QugvXMSl1qowbGgs-Q-62" value="No" style="text;html=1;strokeColor=none;fillColor=none;align=center;verticalAlign=middle;whiteSpace=wrap;rounded=0;" vertex="1" parent="C_QugvXMSl1qowbGgs-Q-1">
          <mxGeometry x="1518.56" y="604.25" width="60" height="30" as="geometry" />
        </mxCell>
        <mxCell id="C_QugvXMSl1qowbGgs-Q-112" value="" style="edgeStyle=orthogonalEdgeStyle;rounded=0;orthogonalLoop=1;jettySize=auto;html=1;" edge="1" parent="C_QugvXMSl1qowbGgs-Q-1" source="C_QugvXMSl1qowbGgs-Q-64" target="C_QugvXMSl1qowbGgs-Q-66">
          <mxGeometry relative="1" as="geometry" />
        </mxCell>
        <mxCell id="C_QugvXMSl1qowbGgs-Q-117" value="" style="edgeStyle=orthogonalEdgeStyle;rounded=0;orthogonalLoop=1;jettySize=auto;html=1;" edge="1" parent="C_QugvXMSl1qowbGgs-Q-1" source="C_QugvXMSl1qowbGgs-Q-64" target="C_QugvXMSl1qowbGgs-Q-116">
          <mxGeometry relative="1" as="geometry" />
        </mxCell>
        <mxCell id="C_QugvXMSl1qowbGgs-Q-64" value="Detecto maleza?" style="rhombus;whiteSpace=wrap;html=1;strokeWidth=2;" vertex="1" parent="C_QugvXMSl1qowbGgs-Q-1">
          <mxGeometry x="1824" y="201.13" width="105.25" height="105.25" as="geometry" />
        </mxCell>
        <mxCell id="C_QugvXMSl1qowbGgs-Q-111" value="" style="edgeStyle=orthogonalEdgeStyle;rounded=0;orthogonalLoop=1;jettySize=auto;html=1;" edge="1" parent="C_QugvXMSl1qowbGgs-Q-1" source="C_QugvXMSl1qowbGgs-Q-66" target="C_QugvXMSl1qowbGgs-Q-68">
          <mxGeometry relative="1" as="geometry" />
        </mxCell>
        <mxCell id="C_QugvXMSl1qowbGgs-Q-119" value="" style="edgeStyle=orthogonalEdgeStyle;rounded=0;orthogonalLoop=1;jettySize=auto;html=1;" edge="1" parent="C_QugvXMSl1qowbGgs-Q-1" source="C_QugvXMSl1qowbGgs-Q-66" target="C_QugvXMSl1qowbGgs-Q-118">
          <mxGeometry relative="1" as="geometry" />
        </mxCell>
        <mxCell id="C_QugvXMSl1qowbGgs-Q-66" value="Se detecto cambio en el terreno?" style="rhombus;whiteSpace=wrap;html=1;strokeWidth=2;" vertex="1" parent="C_QugvXMSl1qowbGgs-Q-1">
          <mxGeometry x="1828.31" y="404.25" width="95.62" height="95.62" as="geometry" />
        </mxCell>
        <mxCell id="C_QugvXMSl1qowbGgs-Q-110" value="" style="edgeStyle=orthogonalEdgeStyle;rounded=0;orthogonalLoop=1;jettySize=auto;html=1;" edge="1" parent="C_QugvXMSl1qowbGgs-Q-1" source="C_QugvXMSl1qowbGgs-Q-68" target="C_QugvXMSl1qowbGgs-Q-70">
          <mxGeometry relative="1" as="geometry" />
        </mxCell>
        <mxCell id="C_QugvXMSl1qowbGgs-Q-125" value="" style="edgeStyle=orthogonalEdgeStyle;rounded=0;orthogonalLoop=1;jettySize=auto;html=1;" edge="1" parent="C_QugvXMSl1qowbGgs-Q-1" source="C_QugvXMSl1qowbGgs-Q-68" target="C_QugvXMSl1qowbGgs-Q-124">
          <mxGeometry relative="1" as="geometry" />
        </mxCell>
        <mxCell id="C_QugvXMSl1qowbGgs-Q-68" value="El usuario detuvo el equipo?" style="rhombus;whiteSpace=wrap;html=1;strokeWidth=2;" vertex="1" parent="C_QugvXMSl1qowbGgs-Q-1">
          <mxGeometry x="1824" y="571.63" width="105.25" height="105.25" as="geometry" />
        </mxCell>
        <mxCell id="C_QugvXMSl1qowbGgs-Q-83" value="" style="edgeStyle=orthogonalEdgeStyle;rounded=0;orthogonalLoop=1;jettySize=auto;html=1;" edge="1" parent="C_QugvXMSl1qowbGgs-Q-1" source="C_QugvXMSl1qowbGgs-Q-70" target="C_QugvXMSl1qowbGgs-Q-82">
          <mxGeometry relative="1" as="geometry" />
        </mxCell>
        <mxCell id="C_QugvXMSl1qowbGgs-Q-70" value="Finalizo el recorrido?" style="rhombus;whiteSpace=wrap;html=1;strokeWidth=2;" vertex="1" parent="C_QugvXMSl1qowbGgs-Q-1">
          <mxGeometry x="1824" y="735" width="105.25" height="105.25" as="geometry" />
        </mxCell>
        <mxCell id="C_QugvXMSl1qowbGgs-Q-86" value="" style="edgeStyle=orthogonalEdgeStyle;rounded=0;orthogonalLoop=1;jettySize=auto;html=1;" edge="1" parent="C_QugvXMSl1qowbGgs-Q-1" source="C_QugvXMSl1qowbGgs-Q-82" target="C_QugvXMSl1qowbGgs-Q-84">
          <mxGeometry relative="1" as="geometry" />
        </mxCell>
        <mxCell id="C_QugvXMSl1qowbGgs-Q-82" value="Retornar a la estacion de carga" style="whiteSpace=wrap;html=1;strokeWidth=2;" vertex="1" parent="C_QugvXMSl1qowbGgs-Q-1">
          <mxGeometry x="2207.005" y="757.625" width="120" height="60" as="geometry" />
        </mxCell>
        <mxCell id="C_QugvXMSl1qowbGgs-Q-91" value="" style="edgeStyle=orthogonalEdgeStyle;rounded=0;orthogonalLoop=1;jettySize=auto;html=1;" edge="1" parent="C_QugvXMSl1qowbGgs-Q-1" source="C_QugvXMSl1qowbGgs-Q-84" target="C_QugvXMSl1qowbGgs-Q-89">
          <mxGeometry relative="1" as="geometry" />
        </mxCell>
        <mxCell id="C_QugvXMSl1qowbGgs-Q-84" value="Apagar dispositivo" style="whiteSpace=wrap;html=1;strokeWidth=2;" vertex="1" parent="C_QugvXMSl1qowbGgs-Q-1">
          <mxGeometry x="2207.005" y="604.245" width="120" height="60" as="geometry" />
        </mxCell>
        <mxCell id="C_QugvXMSl1qowbGgs-Q-89" value="Fin" style="strokeWidth=2;html=1;shape=mxgraph.flowchart.terminator;whiteSpace=wrap;gradientColor=none;align=center;" vertex="1" parent="C_QugvXMSl1qowbGgs-Q-1">
          <mxGeometry x="2205" y="460" width="124" height="67" as="geometry" />
        </mxCell>
        <mxCell id="C_QugvXMSl1qowbGgs-Q-92" value="No" style="text;html=1;strokeColor=none;fillColor=none;align=center;verticalAlign=middle;whiteSpace=wrap;rounded=0;" vertex="1" parent="C_QugvXMSl1qowbGgs-Q-1">
          <mxGeometry x="1857" y="333" width="60" height="30" as="geometry" />
        </mxCell>
        <mxCell id="C_QugvXMSl1qowbGgs-Q-95" value="No" style="text;html=1;strokeColor=none;fillColor=none;align=center;verticalAlign=middle;whiteSpace=wrap;rounded=0;" vertex="1" parent="C_QugvXMSl1qowbGgs-Q-1">
          <mxGeometry x="1863.93" y="518" width="60" height="30" as="geometry" />
        </mxCell>
        <mxCell id="C_QugvXMSl1qowbGgs-Q-96" value="No" style="text;html=1;strokeColor=none;fillColor=none;align=center;verticalAlign=middle;whiteSpace=wrap;rounded=0;" vertex="1" parent="C_QugvXMSl1qowbGgs-Q-1">
          <mxGeometry x="1863.9299999999998" y="682" width="60" height="30" as="geometry" />
        </mxCell>
        <mxCell id="C_QugvXMSl1qowbGgs-Q-102" value="Si" style="text;html=1;strokeColor=none;fillColor=none;align=center;verticalAlign=middle;whiteSpace=wrap;rounded=0;" vertex="1" parent="C_QugvXMSl1qowbGgs-Q-1">
          <mxGeometry x="1931.74" y="598" width="60" height="30" as="geometry" />
        </mxCell>
        <mxCell id="C_QugvXMSl1qowbGgs-Q-103" value="Si" style="text;html=1;strokeColor=none;fillColor=none;align=center;verticalAlign=middle;whiteSpace=wrap;rounded=0;" vertex="1" parent="C_QugvXMSl1qowbGgs-Q-1">
          <mxGeometry x="1921" y="422.06" width="60" height="30" as="geometry" />
        </mxCell>
        <mxCell id="C_QugvXMSl1qowbGgs-Q-104" value="Si" style="text;html=1;strokeColor=none;fillColor=none;align=center;verticalAlign=middle;whiteSpace=wrap;rounded=0;" vertex="1" parent="C_QugvXMSl1qowbGgs-Q-1">
          <mxGeometry x="2027" y="757.63" width="60" height="30" as="geometry" />
        </mxCell>
        <mxCell id="C_QugvXMSl1qowbGgs-Q-108" value="" style="edgeStyle=orthogonalEdgeStyle;rounded=0;orthogonalLoop=1;jettySize=auto;html=1;" edge="1" parent="C_QugvXMSl1qowbGgs-Q-1" source="C_QugvXMSl1qowbGgs-Q-106" target="C_QugvXMSl1qowbGgs-Q-82">
          <mxGeometry relative="1" as="geometry" />
        </mxCell>
        <mxCell id="C_QugvXMSl1qowbGgs-Q-106" value="B" style="strokeWidth=2;html=1;shape=mxgraph.flowchart.start_2;whiteSpace=wrap;" vertex="1" parent="C_QugvXMSl1qowbGgs-Q-1">
          <mxGeometry x="2397.13" y="770.12" width="35" height="35" as="geometry" />
        </mxCell>
        <mxCell id="C_QugvXMSl1qowbGgs-Q-114" value="Esquivar obstaculo" style="shape=process;whiteSpace=wrap;html=1;backgroundOutline=1;strokeWidth=2;" vertex="1" parent="C_QugvXMSl1qowbGgs-Q-1">
          <mxGeometry x="1993.255" y="51.435" width="120" height="60" as="geometry" />
        </mxCell>
        <mxCell id="C_QugvXMSl1qowbGgs-Q-116" value="Remover maleza" style="shape=process;whiteSpace=wrap;html=1;backgroundOutline=1;strokeWidth=2;" vertex="1" parent="C_QugvXMSl1qowbGgs-Q-1">
          <mxGeometry x="2001.875" y="223.755" width="120" height="60" as="geometry" />
        </mxCell>
        <mxCell id="C_QugvXMSl1qowbGgs-Q-118" value="&amp;nbsp;Cambio de terreno" style="shape=process;whiteSpace=wrap;html=1;backgroundOutline=1;strokeWidth=2;" vertex="1" parent="C_QugvXMSl1qowbGgs-Q-1">
          <mxGeometry x="1991.7399999999998" y="422.06" width="120" height="60" as="geometry" />
        </mxCell>
        <mxCell id="C_QugvXMSl1qowbGgs-Q-122" value="Si" style="text;html=1;strokeColor=none;fillColor=none;align=center;verticalAlign=middle;whiteSpace=wrap;rounded=0;" vertex="1" parent="C_QugvXMSl1qowbGgs-Q-1">
          <mxGeometry x="1929.25" y="223.76" width="60" height="30" as="geometry" />
        </mxCell>
        <mxCell id="C_QugvXMSl1qowbGgs-Q-123" value="Si" style="text;html=1;strokeColor=none;fillColor=none;align=center;verticalAlign=middle;whiteSpace=wrap;rounded=0;" vertex="1" parent="C_QugvXMSl1qowbGgs-Q-1">
          <mxGeometry x="1924.94" y="51.44" width="60" height="30" as="geometry" />
        </mxCell>
        <mxCell id="C_QugvXMSl1qowbGgs-Q-124" value="B" style="strokeWidth=2;html=1;shape=mxgraph.flowchart.start_2;whiteSpace=wrap;" vertex="1" parent="C_QugvXMSl1qowbGgs-Q-1">
          <mxGeometry x="2001.88" y="606.76" width="35" height="35" as="geometry" />
        </mxCell>
        <mxCell id="jph98opn1GsTQwy_1HWM-1" value="" style="edgeStyle=orthogonalEdgeStyle;rounded=0;orthogonalLoop=1;jettySize=auto;html=1;" edge="1" parent="C_QugvXMSl1qowbGgs-Q-1" source="jph98opn1GsTQwy_1HWM-0" target="C_QugvXMSl1qowbGgs-Q-64">
          <mxGeometry relative="1" as="geometry" />
        </mxCell>
        <mxCell id="jph98opn1GsTQwy_1HWM-0" value="C" style="strokeWidth=2;html=1;shape=mxgraph.flowchart.start_2;whiteSpace=wrap;" vertex="1" parent="C_QugvXMSl1qowbGgs-Q-1">
          <mxGeometry x="1753" y="236.26" width="35" height="35" as="geometry" />
        </mxCell>
        <mxCell id="6H2uC4m16HUjunUll8Zu-1" value="" style="edgeStyle=orthogonalEdgeStyle;rounded=0;orthogonalLoop=1;jettySize=auto;html=1;" edge="1" parent="C_QugvXMSl1qowbGgs-Q-1" source="6H2uC4m16HUjunUll8Zu-0" target="C_QugvXMSl1qowbGgs-Q-66">
          <mxGeometry relative="1" as="geometry" />
        </mxCell>
        <mxCell id="6H2uC4m16HUjunUll8Zu-0" value="D" style="strokeWidth=2;html=1;shape=mxgraph.flowchart.start_2;whiteSpace=wrap;" vertex="1" parent="C_QugvXMSl1qowbGgs-Q-1">
          <mxGeometry x="1752.5" y="434.56" width="35" height="35" as="geometry" />
        </mxCell>
        <mxCell id="6H2uC4m16HUjunUll8Zu-5" value="" style="edgeStyle=orthogonalEdgeStyle;rounded=0;orthogonalLoop=1;jettySize=auto;html=1;" edge="1" parent="C_QugvXMSl1qowbGgs-Q-1" source="6H2uC4m16HUjunUll8Zu-4" target="C_QugvXMSl1qowbGgs-Q-68">
          <mxGeometry relative="1" as="geometry" />
        </mxCell>
        <mxCell id="6H2uC4m16HUjunUll8Zu-4" value="E" style="strokeWidth=2;html=1;shape=mxgraph.flowchart.start_2;whiteSpace=wrap;" vertex="1" parent="C_QugvXMSl1qowbGgs-Q-1">
          <mxGeometry x="1753" y="606.76" width="34" height="36.24" as="geometry" />
        </mxCell>
      </root>
    </mxGraphModel>
  </diagram>
  <diagram id="9xFca8OmsNWProy-IAi8" name="Esquivar obstaculo">
    <mxGraphModel dx="-579" dy="459" grid="0" gridSize="10" guides="1" tooltips="1" connect="1" arrows="1" fold="1" page="0" pageScale="1" pageWidth="850" pageHeight="1100" math="0" shadow="0">
      <root>
        <mxCell id="MrLYcJKe8OQOwlfNKo6j-0" />
        <mxCell id="MrLYcJKe8OQOwlfNKo6j-1" parent="MrLYcJKe8OQOwlfNKo6j-0" />
        <mxCell id="iMMgzM6v6R2h1lFypMbv-2" value="" style="edgeStyle=orthogonalEdgeStyle;rounded=0;orthogonalLoop=1;jettySize=auto;html=1;" edge="1" parent="MrLYcJKe8OQOwlfNKo6j-1" source="iMMgzM6v6R2h1lFypMbv-0" target="iMMgzM6v6R2h1lFypMbv-1">
          <mxGeometry relative="1" as="geometry" />
        </mxCell>
        <mxCell id="iMMgzM6v6R2h1lFypMbv-0" value="Esquivar obstaculo" style="shape=process;whiteSpace=wrap;html=1;backgroundOutline=1;strokeWidth=2;" vertex="1" parent="MrLYcJKe8OQOwlfNKo6j-1">
          <mxGeometry x="1993.255" y="51.435" width="120" height="60" as="geometry" />
        </mxCell>
        <mxCell id="w2H5JAK_v5N2b8WuQ5nA-0" value="" style="edgeStyle=orthogonalEdgeStyle;rounded=0;orthogonalLoop=1;jettySize=auto;html=1;" edge="1" parent="MrLYcJKe8OQOwlfNKo6j-1" source="iMMgzM6v6R2h1lFypMbv-1" target="ghp9VYRLD_155iWnKwv--0">
          <mxGeometry relative="1" as="geometry" />
        </mxCell>
        <mxCell id="w2H5JAK_v5N2b8WuQ5nA-6" value="" style="edgeStyle=orthogonalEdgeStyle;rounded=0;orthogonalLoop=1;jettySize=auto;html=1;" edge="1" parent="MrLYcJKe8OQOwlfNKo6j-1" source="iMMgzM6v6R2h1lFypMbv-1" target="w2H5JAK_v5N2b8WuQ5nA-2">
          <mxGeometry relative="1" as="geometry" />
        </mxCell>
        <mxCell id="iMMgzM6v6R2h1lFypMbv-1" value="Aun se encuentra el obstaculo?" style="rhombus;whiteSpace=wrap;html=1;strokeWidth=2;" vertex="1" parent="MrLYcJKe8OQOwlfNKo6j-1">
          <mxGeometry x="2007.97" y="181.44" width="90.57" height="90.57" as="geometry" />
        </mxCell>
        <mxCell id="ghp9VYRLD_155iWnKwv--0" value="C" style="strokeWidth=2;html=1;shape=mxgraph.flowchart.start_2;whiteSpace=wrap;" vertex="1" parent="MrLYcJKe8OQOwlfNKo6j-1">
          <mxGeometry x="1922" y="209.22" width="35" height="35" as="geometry" />
        </mxCell>
        <mxCell id="w2H5JAK_v5N2b8WuQ5nA-1" value="No" style="text;html=1;strokeColor=none;fillColor=none;align=center;verticalAlign=middle;whiteSpace=wrap;rounded=0;" vertex="1" parent="MrLYcJKe8OQOwlfNKo6j-1">
          <mxGeometry x="1957" y="204" width="60" height="30" as="geometry" />
        </mxCell>
        <mxCell id="w2H5JAK_v5N2b8WuQ5nA-7" value="" style="edgeStyle=orthogonalEdgeStyle;rounded=0;orthogonalLoop=1;jettySize=auto;html=1;" edge="1" parent="MrLYcJKe8OQOwlfNKo6j-1" source="w2H5JAK_v5N2b8WuQ5nA-2" target="w2H5JAK_v5N2b8WuQ5nA-4">
          <mxGeometry relative="1" as="geometry" />
        </mxCell>
        <mxCell id="w2H5JAK_v5N2b8WuQ5nA-2" value="Detectar zona libre y segura" style="whiteSpace=wrap;html=1;strokeWidth=2;" vertex="1" parent="MrLYcJKe8OQOwlfNKo6j-1">
          <mxGeometry x="2151.995" y="196.72499999999994" width="120" height="60" as="geometry" />
        </mxCell>
        <mxCell id="w2H5JAK_v5N2b8WuQ5nA-9" value="" style="edgeStyle=orthogonalEdgeStyle;rounded=0;orthogonalLoop=1;jettySize=auto;html=1;" edge="1" parent="MrLYcJKe8OQOwlfNKo6j-1" source="w2H5JAK_v5N2b8WuQ5nA-4" target="w2H5JAK_v5N2b8WuQ5nA-8">
          <mxGeometry relative="1" as="geometry" />
        </mxCell>
        <mxCell id="w2H5JAK_v5N2b8WuQ5nA-4" value="Esquivar obstaculo mediante la zona libre y segura." style="whiteSpace=wrap;html=1;strokeWidth=2;" vertex="1" parent="MrLYcJKe8OQOwlfNKo6j-1">
          <mxGeometry x="2151.995" y="92.00499999999994" width="120" height="60" as="geometry" />
        </mxCell>
        <mxCell id="w2H5JAK_v5N2b8WuQ5nA-11" value="" style="edgeStyle=orthogonalEdgeStyle;rounded=0;orthogonalLoop=1;jettySize=auto;html=1;" edge="1" parent="MrLYcJKe8OQOwlfNKo6j-1" source="w2H5JAK_v5N2b8WuQ5nA-8" target="w2H5JAK_v5N2b8WuQ5nA-10">
          <mxGeometry relative="1" as="geometry" />
        </mxCell>
        <mxCell id="w2H5JAK_v5N2b8WuQ5nA-8" value="Reincorporse al trayecto&amp;nbsp;" style="whiteSpace=wrap;html=1;strokeWidth=2;" vertex="1" parent="MrLYcJKe8OQOwlfNKo6j-1">
          <mxGeometry x="2351.995" y="92.00499999999994" width="120" height="60" as="geometry" />
        </mxCell>
        <mxCell id="w2H5JAK_v5N2b8WuQ5nA-16" value="" style="edgeStyle=orthogonalEdgeStyle;rounded=0;orthogonalLoop=1;jettySize=auto;html=1;" edge="1" parent="MrLYcJKe8OQOwlfNKo6j-1" source="w2H5JAK_v5N2b8WuQ5nA-10" target="w2H5JAK_v5N2b8WuQ5nA-15">
          <mxGeometry relative="1" as="geometry" />
        </mxCell>
        <mxCell id="w2H5JAK_v5N2b8WuQ5nA-10" value="Continuar recorrido" style="whiteSpace=wrap;html=1;strokeWidth=2;" vertex="1" parent="MrLYcJKe8OQOwlfNKo6j-1">
          <mxGeometry x="2351.995" y="196.72499999999994" width="120" height="60" as="geometry" />
        </mxCell>
        <mxCell id="w2H5JAK_v5N2b8WuQ5nA-15" value="C" style="strokeWidth=2;html=1;shape=mxgraph.flowchart.start_2;whiteSpace=wrap;" vertex="1" parent="MrLYcJKe8OQOwlfNKo6j-1">
          <mxGeometry x="2532" y="209.22" width="35" height="35" as="geometry" />
        </mxCell>
      </root>
    </mxGraphModel>
  </diagram>
</mxfile>
